#!OML:ASF H:\Dans Jumps\Project 1\Capture day 1\Session 1\subject.ASF
:FULLY-SPECIFIED
:DEGREES
584
root 0.229849 17.8099 -1.91383 7.06849 -0.584886 -1.35255
lowerback -2.96444 -0.685625 -0.27132
upperback 3.10353 -0.97766 1.69816
thorax 4.90413 -0.528345 1.83901
lowerneck -11.0034 0.877729 -1.63517
upperneck 38.1817 1.80557 -0.16105
head 15.1503 0.50081 0.50507
rclavicle -3.23025e-015 -1.47101e-014
rhumerus -26.3158 -17.0832 -80.9254
rradius 22.921
rwrist 33.7085
rhand -20.5933 -26.4264
rfingers 7.12502
rthumb 5.767 -56.3279
lclavicle -3.23025e-015 -1.47101e-014
lhumerus -21.9129 -3.72974 90.4057
lradius 16.9726
lwrist 2.85155
lhand -25.5924 -4.51489
lfingers 7.12502
lthumb 0.939408 25.4628
rfemur -14.2132 -2.69284 19.763
rtibia 20.1269
rfoot -11.615 -2.41205
rtoes 15.6509
lfemur -12.3906 6.84165 -17.3636
ltibia 16.1514
lfoot -8.88275 1.97028
ltoes 4.88627
585
root 0.231172 17.8096 -1.91189 7.06361 -0.629265 -1.35869
lowerback -2.96606 -0.689159 -0.271188
upperback 3.09551 -0.982509 1.70276
thorax 4.89694 -0.53077 1.84335
lowerneck -11.0059 0.888707 -1.63136
upperneck 38.1817 1.83076 -0.188212
head 15.1512 0.508099 0.496821
rclavicle -1.2921e-015 1.23246e-014
rhumerus -26.2915 -17.0209 -80.9515
rradius 22.9251
rwrist 33.7001
rhand -20.575 -26.4204
rfingers 7.12502
rthumb 5.7847 -56.3214
lclavicle -1.2921e-015 1.23246e-014
lhumerus -21.9212 -3.84533 90.4455
lradius 17.0015
lwrist 2.93664
lhand -25.6319 -4.58345
lfingers 7.12502
lthumb 0.901224 25.3944
rfemur -14.2101 -2.68018 19.7644
rtibia 20.1309
rfoot -11.6177 -2.38832
rtoes 15.6434
lfemur -12.3743 6.84751 -17.3615
ltibia 16.1572
lfoot -8.88498 2.00626
ltoes 4.87733
586
root 0.232538 17.8093 -1.91001 7.05712 -0.672192 -1.36234
lowerback -2.96785 -0.693138 -0.272605
upperback 3.08875 -0.98788 1.70715
thorax 4.89121 -0.533519 1.8483
lowerneck -11.0066 0.90111 -1.6272
upperneck 38.1818 1.85864 -0.217078
head 15.1518 0.516367 0.488197
rclavicle 1.37161e-014 3.97569e-015
rhumerus -26.2644 -16.9556 -80.9778
rradius 22.9321
rwrist 33.6889
rhand -20.551 -26.4212
rfingers 7.12502
rthumb 5.80788 -56.3216
lclavicle 1.37161e-014 3.97569e-015
lhumerus -21.9236 -3.96086 90.4857
lradius 17.0252
lwrist 3.01465
lhand -25.6802 -4.66857
lfingers 7.12502
lthumb 0.854607 25.3095
rfemur -14.2055 -2.6715 19.763
rtibia 20.1353
rfoot -11.6206 -2.36242
rtoes 15.6347
lfemur -12.3559 6.85488 -17.3623
ltibia 16.1621
lfoot -8.88719 2.03936
ltoes 4.87324
587
root 0.233933 17.809 -1.90822 7.04875 -0.713101 -1.36524
lowerback -2.9676 -0.697584 -0.273647
upperback 3.08232 -0.993914 1.71221
thorax 4.88469 -0.536595 1.85371
lowerneck -11.0054 0.913302 -1.62439
upperneck 38.1831 1.88688 -0.246798
head 15.1525 0.524485 0.479507
rclavicle -7.25564e-015 7.55382e-015
rhumerus -26.2363 -16.8861 -81.0029
rradius 22.9416
rwrist 33.6737
rhand -20.5287 -26.4248
rfingers 7.12502
rthumb 5.82934 -56.3246
lclavicle -7.25564e-015 7.55382e-015
lhumerus -21.9243 -4.08159 90.5297
lradius 17.0465
lwrist 3.10091
lhand -25.7469 -4.77251
lfingers 7.12502
lthumb 0.790156 25.2058
rfemur -14.1988 -2.66632 19.7606
rtibia 20.1406
rfoot -11.6246 -2.33497
rtoes 15.6204
lfemur -12.3351 6.861 -17.3637
ltibia 16.1659
lfoot -8.88928 2.07011
ltoes 4.87866
588
root 0.235422 17.8086 -1.90651 7.03801 -0.750685 -1.36292
lowerback -2.9669 -0.702962 -0.277815
upperback 3.07769 -1.00101 1.71639
thorax 4.87987 -0.540311 1.85988
lowerneck -11.0038 0.924284 -1.62456
upperneck 38.1847 1.9137 -0.275387
head 15.1533 0.531735 0.471604
rclavicle 1.49089e-015 -2.18663e-015
rhumerus -26.2055 -16.8129 -81.0275
rradius 22.9521
rwrist 33.6554
rhand -20.5165 -26.426
rfingers 7.12502
rthumb 5.84121 -56.3255
lclavicle 1.49089e-015 -2.18663e-015
lhumerus -21.9204 -4.20933 90.5765
lradius 17.0671
lwrist 3.19332
lhand -25.8218 -4.87427
lfingers 7.12502
lthumb 0.717871 25.1043
rfemur -14.1896 -2.66669 19.752
rtibia 20.1475
rfoot -11.6305 -2.30522
rtoes 15.6082
lfemur -12.3109 6.86612 -17.3708
ltibia 16.1679
lfoot -8.89259 2.09679
ltoes 4.89553
589
root 0.236971 17.8082 -1.90476 7.02532 -0.787578 -1.3595
lowerback -2.9658 -0.707781 -0.281091
upperback 3.07477 -1.00741 1.72002
thorax 4.87656 -0.54365 1.86504
lowerneck -11.0055 0.934612 -1.62569
upperneck 38.1889 1.93952 -0.30274
head 15.1561 0.538545 0.464286
rclavicle 4.42296e-015 8.15017e-015
rhumerus -26.1738 -16.7405 -81.0512
rradius 22.9646
rwrist 33.6358
rhand -20.5149 -26.4272
rfingers 7.12502
rthumb 5.84266 -56.3266
lclavicle 4.42296e-015 8.15017e-015
lhumerus -21.913 -4.3355 90.6223
lradius 17.0897
lwrist 3.27947
lhand -25.8922 -4.97313
lfingers 7.12502
lthumb 0.649821 25.0056
rfemur -14.1782 -2.6686 19.7417
rtibia 20.1554
rfoot -11.6377 -2.27324
rtoes 15.5982
lfemur -12.2827 6.87037 -17.3789
ltibia 16.168
lfoot -8.89714 2.12348
ltoes 4.915
590
root 0.238494 17.8078 -1.90308 7.01218 -0.824521 -1.3562
lowerback -2.96462 -0.712089 -0.284606
upperback 3.07213 -1.01316 1.72461
thorax 4.87351 -0.546698 1.87137
lowerneck -11.0081 0.944139 -1.62899
upperneck 38.1955 1.9641 -0.328231
head 15.1603 0.544746 0.457968
rclavicle 2.48481e-016 -2.78299e-015
rhumerus -26.1428 -16.6673 -81.0728
rradius 22.9781
rwrist 33.6128
rhand -20.523 -26.4272
rfingers 7.12502
rthumb 5.8349 -56.3268
lclavicle 2.48481e-016 -2.78299e-015
lhumerus -21.9015 -4.4572 90.667
lradius 17.11
lwrist 3.35731
lhand -25.9545 -5.06958
lfingers 7.12502
lthumb 0.589736 24.9094
rfemur -14.1673 -2.66697 19.7314
rtibia 20.1647
rfoot -11.645 -2.24407
rtoes 15.581
lfemur -12.2528 6.87358 -17.3863
ltibia 16.1653
lfoot -8.90093 2.15033
ltoes 4.93607
591
root 0.240006 17.8075 -1.9013 6.99911 -0.86342 -1.35039
lowerback -2.96642 -0.714711 -0.289986
upperback 3.0713 -1.01655 1.72797
thorax 4.87395 -0.548641 1.87762
lowerneck -11.0132 0.952284 -1.6361
upperneck 38.2029 1.98553 -0.347783
head 15.1653 0.549851 0.454372
rclavicle 7.25564e-015 -1.15295e-014
rhumerus -26.1091 -16.6056 -81.092
rradius 22.989
rwrist 33.5948
rhand -20.5396 -26.4236
rfingers 7.12502
rthumb 5.81888 -56.3237
lclavicle 7.25564e-015 -1.15295e-014
lhumerus -21.8831 -4.57759 90.7086
lradius 17.1278
lwrist 3.42786
lhand -26.0026 -5.15251
lfingers 7.12502
lthumb 0.543221 24.8265
rfemur -14.1567 -2.66289 19.7182
rtibia 20.1746
rfoot -11.6522 -2.21578
rtoes 15.5595
lfemur -12.2215 6.87893 -17.3966
ltibia 16.1604
lfoot -8.904 2.17699
ltoes 4.95406
592
root 0.241467 17.8072 -1.89938 6.98631 -0.903837 -1.34377
lowerback -2.97155 -0.716538 -0.297536
upperback 3.07119 -1.01883 1.73227
thorax 4.87709 -0.550151 1.8861
lowerneck -11.0182 0.960972 -1.64616
upperneck 38.2123 2.00782 -0.365077
head 15.1713 0.555181 0.452404
rclavicle -4.96962e-017 1.59028e-015
rhumerus -26.075 -16.5423 -81.1095
rradius 23.0009
rwrist 33.5729
rhand -20.5569 -26.4271
rfingers 7.12502
rthumb 5.80217 -56.3277
lclavicle -4.96962e-017 1.59028e-015
lhumerus -21.8601 -4.68994 90.7481
lradius 17.1419
lwrist 3.48868
lhand -26.0378 -5.22049
lfingers 7.12502
lthumb 0.50921 24.7586
rfemur -14.1471 -2.6525 19.7039
rtibia 20.1856
rfoot -11.659 -2.19239
rtoes 15.5317
lfemur -12.1898 6.88371 -17.408
ltibia 16.1539
lfoot -8.9059 2.207
ltoes 4.95168
593
root 0.242936 17.807 -1.89739 6.9734 -0.94443 -1.33654
lowerback -2.9787 -0.717279 -0.304986
upperback 3.07207 -1.0197 1.73653
thorax 4.88235 -0.550965 1.89457
lowerneck -11.0256 0.968907 -1.65685
upperneck 38.2246 2.02878 -0.380949
head 15.1792 0.560011 0.450982
rclavicle -6.21202e-015 1.45113e-014
rhumerus -26.0388 -16.4879 -81.1237
rradius 23.0079
rwrist 33.5526
rhand -20.5789 -26.4293
rfingers 7.12502
rthumb 5.78092 -56.3305
lclavicle -6.21202e-015 1.45113e-014
lhumerus -21.8343 -4.80391 90.7874
lradius 17.1567
lwrist 3.55708
lhand -26.0612 -5.26941
lfingers 7.12502
lthumb 0.486634 24.7098
rfemur -14.1378 -2.64082 19.6891
rtibia 20.198
rfoot -11.6657 -2.17122
rtoes 15.5004
lfemur -12.1576 6.88868 -17.4202
ltibia 16.1463
lfoot -8.90621 2.23835
ltoes 4.93396
594
root 0.244398 17.8066 -1.89542 6.96217 -0.983464 -1.32967
lowerback -2.98951 -0.717841 -0.311242
upperback 3.07341 -1.02042 1.74066
thorax 4.89014 -0.551673 1.9022
lowerneck -11.0328 0.97804 -1.66402
upperneck 38.2371 2.05116 -0.398276
head 15.1873 0.565765 0.448543
rclavicle -8.39865e-015 9.93923e-015
rhumerus -26 -16.4359 -81.1374
rradius 23.0106
rwrist 33.5337
rhand -20.5964 -26.4321
rfingers 7.12502
rthumb 5.76404 -56.3337
lclavicle -8.39865e-015 9.93923e-015
lhumerus -21.8068 -4.91522 90.824
lradius 17.1745
lwrist 3.62896
lhand -26.0742 -5.30538
lfingers 7.12502
lthumb 0.474104 24.6738
rfemur -14.1313 -2.62748 19.6749
rtibia 20.2122
rfoot -11.6736 -2.15392
rtoes 15.4686
lfemur -12.128 6.89095 -17.4325
ltibia 16.1389
lfoot -8.90543 2.27344
ltoes 4.89897
